<?xml version="1.0" encoding="UTF-8"?>
<svg width="375px" height="209px" viewBox="0 0 375 209" version="1.1" xmlns="http://www.w3.org/2000/svg" xmlns:xlink="http://www.w3.org/1999/xlink">
    <title>编组 92</title>
    <defs>
        <path d="M0,0 L375,0 L375,131.636888 C312.5,150.545629 250,160 187.5,160 C125,160 62.5,150.545629 0,131.636888 L0,0 Z" id="path-1"></path>
        <linearGradient x1="7.35522754e-14%" y1="41.2270168%" x2="95.8298141%" y2="58.7729832%" id="linearGradient-3">
            <stop stop-color="#FEE2B2" offset="0%"></stop>
            <stop stop-color="#FDCD79" offset="47.2511068%"></stop>
            <stop stop-color="#FFE1AD" offset="100%"></stop>
        </linearGradient>
        <linearGradient x1="100%" y1="53.8705225%" x2="4.62824223e-13%" y2="50%" id="linearGradient-4">
            <stop stop-color="#FFE9B5" stop-opacity="0.0601781031" offset="0%"></stop>
            <stop stop-color="#FDCF7E" offset="100%"></stop>
        </linearGradient>
        <path d="M-5,132 C65.5175338,152.666667 133.365821,163 198.544862,163 C263.723904,163 327.542283,152.666667 390,132 L390,175 L-5,175 L-5,132 Z" id="path-5"></path>
        <filter x="-5.1%" y="-69.8%" width="110.1%" height="193.0%" filterUnits="objectBoundingBox" id="filter-6">
            <feOffset dx="0" dy="-10" in="SourceAlpha" result="shadowOffsetOuter1"></feOffset>
            <feGaussianBlur stdDeviation="5" in="shadowOffsetOuter1" result="shadowBlurOuter1"></feGaussianBlur>
            <feColorMatrix values="0 0 0 0 1   0 0 0 0 0.89360449   0 0 0 0 0.707412348  0 0 0 0.683184003 0" type="matrix" in="shadowBlurOuter1"></feColorMatrix>
        </filter>
        <linearGradient x1="-7.61191838%" y1="30.0338882%" x2="84.7334849%" y2="82.609509%" id="linearGradient-7">
            <stop stop-color="#FFFFFF" stop-opacity="0" offset="0%"></stop>
            <stop stop-color="#FFFFFF" stop-opacity="0.41130354" offset="100%"></stop>
        </linearGradient>
    </defs>
    <g id="页面-1" stroke="none" stroke-width="1" fill="none" fill-rule="evenodd">
        <g id="编组-92">
            <g id="矩形备份-2">
                <path d="M0,0 L375,0 L375,137.636888 C312.5,156.545629 250,166 187.5,166 C125,166 62.5,156.545629 0,137.636888 L0,0 Z" id="蒙版备份" fill-opacity="0.26" fill="#242C48"></path>
                <mask id="mask-2" fill="white">
                    <use xlink:href="#path-1"></use>
                </mask>
                <use id="蒙版" fill="#242C48" xlink:href="#path-1"></use>
                <rect id="矩形" stroke="#FFFFFF" fill="url(#linearGradient-3)" mask="url(#mask-2)" x="19.5" y="31.5" width="338" height="141" rx="4"></rect>
                <path d="M23,31 L67,31 L67,31 L67,49 C67,51.209139 65.209139,53 63,53 L19,53 L19,53 L19,35 C19,32.790861 20.790861,31 23,31 Z" id="矩形" fill="url(#linearGradient-4)" mask="url(#mask-2)"></path>
                <text id="未开通" mask="url(#mask-2)" font-family="PingFangSC-Medium, PingFang SC" font-size="10" font-weight="400" letter-spacing="0.441176471" fill="#94580B">
                    <tspan x="27" y="46">未开通</tspan>
                </text>
                <g id="矩形" mask="url(#mask-2)">
                    <use fill="black" fill-opacity="1" filter="url(#filter-6)" xlink:href="#path-5"></use>
                    <use fill="#D8D8D8" fill-rule="evenodd" xlink:href="#path-5"></use>
                </g>
                <path d="M341.058333,100.183333 C337.433333,97.2833334 332.6,96.8 328.733333,99.2166666 L312.783333,107.916667 L302.391667,81.3333334 C300.7,76.9833334 296.833333,74.0833334 292,74.0833334 C287.408333,74.0833334 283.3,76.9833334 281.608333,81.3333334 L271.216667,107.916667 L255.508333,98.975 C251.4,96.8 246.566667,97.0416666 243.183333,99.9416666 C239.542513,103.114843 238.120453,108.139456 239.558333,112.75 L254.3,158.183333 C255.75,162.775 259.858333,165.916667 264.933333,165.916667 L319.55,165.916667 C324.383333,165.916667 328.733333,162.775 330.183333,158.183333 L344.683333,112.75 C346.133333,108.158333 344.683333,103.083333 341.058333,100.183333 L341.058333,100.183333 Z M306.016667,132.083333 L296.108333,146.825 C295.141667,148.275 293.691667,149 292,149 C290.308333,149 288.858333,148.275 287.891667,146.825 L278.225,132.083333 C276.775,129.908333 277.258333,126.766667 279.433333,125.316667 C281.608333,123.866667 284.75,124.35 286.2,126.525 L292,135.225 L297.8,126.525 C299.25,124.35 302.391667,123.625 304.566667,125.316667 C306.741667,127.008333 307.466667,129.908333 306.016667,132.083333 L306.016667,132.083333 Z" id="形状" fill="url(#linearGradient-7)" fill-rule="nonzero" mask="url(#mask-2)"></path>
                <g id="编组-2备份" mask="url(#mask-2)">
                    <g transform="translate(41.000000, 77.000000)">
                        <text id="超级VIP" font-family="ADZYJT--GB1-0, ADZongYi-A001" font-size="22" font-weight="normal" letter-spacing="0.970588235">
                            <tspan x="30" y="20" fill="#AB6010">超级</tspan>
                            <tspan x="75.9411765" y="20" font-family="DIN-BlackItalic" font-style="italic" fill="#AB6010">VIP</tspan>
                        </text>
                        <text id="尊享无限时免广告看书" font-family="PingFangSC-Regular, PingFang SC" font-size="12" font-weight="normal" letter-spacing="0.529411765">
                            <tspan x="0" y="48" fill="#AB6010">尊享无限时免广告看书</tspan>
                        </text>
                        <g id="会员" stroke-width="1" fill-rule="evenodd" transform="translate(0.000000, 2.000000)">
                            <rect id="矩形" fill="#000000" fill-rule="nonzero" opacity="0" x="0" y="0" width="24" height="24"></rect>
                            <path d="M21.4341723,7.19846349 C20.9147119,6.76054406 20.1976646,6.64103616 19.5642551,6.8868106 L17.5279376,7.58246434 C17.1752686,7.70575913 16.783159,7.59442761 16.5479006,7.30420285 L13.6985029,3.83149943 C13.4220906,3.4858949 13.0506874,3.22862081 12.6299788,3.09132387 C11.7953365,2.84117682 10.8920463,3.11523329 10.3371041,3.78697758 L7.48214117,7.29307239 C7.2508715,7.58110446 6.86454939,7.69440192 6.5143477,7.57689911 L4.43239522,6.8868106 C3.80075675,6.6415135 3.08556008,6.76106877 2.56804323,7.19846349 C2.0780041,7.67078282 1.88578974,8.37343312 2.06717257,9.0294241 L4.14300327,18.3344884 C4.47942858,19.615293 5.61350116,20.5257139 6.93674866,20.577276 L17.0599017,20.577276 C18.402949,20.5770818 19.5661127,19.6451633 19.8592123,18.3344884 L21.9294778,9.0294241 C22.1167127,8.37447695 21.926058,7.66969717 21.4341723,7.19846349 Z M15.118193,16.6927456 L8.91797046,16.6927456 C8.30401327,16.6909119 7.80675813,16.1936568 7.80492451,15.5796996 C7.80492451,14.9649813 8.30325216,14.4666486 8.91797046,14.4666486 L15.118193,14.4666486 C15.4136632,14.4657632 15.6972885,14.5827443 15.9062184,14.7916742 C16.1151484,15.0006041 16.2321294,15.2842294 16.231244,15.5796996 C16.2306247,16.1939832 15.7324769,16.6916328 15.118193,16.6916325 L15.118193,16.6927456 Z" id="形状" fill="#AB6010" fill-rule="nonzero"></path>
                        </g>
                    </g>
                </g>
                <text id="豪华专享特权-x-付费书籍特权备份" opacity="0.596005394" mask="url(#mask-2)" font-family="PingFangSC-Regular, PingFang SC" font-size="10" font-weight="normal" letter-spacing="0.441176471" fill="#AB6010">
                    <tspan x="197" y="56">豪华专享特权 x 付费书籍特权</tspan>
                </text>
            </g>
            <text id="/-/-年费会员·尽享4大专属权益-/备份" font-family="PingFangSC-Medium, PingFang SC" font-size="18" font-weight="400" letter-spacing="0.794117647" fill="#333333">
                <tspan x="40" y="203">/ / 年费会员·尽享4大专属权益 / /</tspan>
            </text>
        </g>
    </g>
</svg>