<?xml version="1.0" encoding="UTF-8"?>
<svg width="26px" height="26px" viewBox="0 0 26 26" version="1.1" xmlns="http://www.w3.org/2000/svg" xmlns:xlink="http://www.w3.org/1999/xlink">
    <title>编组 5</title>
    <defs>
        <linearGradient x1="24.1605613%" y1="-11.1976906%" x2="50%" y2="96.6026815%" id="linearGradient-1">
            <stop stop-color="#FDC031" offset="0%"></stop>
            <stop stop-color="#FA8C16" offset="100%"></stop>
        </linearGradient>
    </defs>
    <g id="页面-1" stroke="none" stroke-width="1" fill="none" fill-rule="evenodd">
        <g id="编组-5" fill-rule="nonzero">
            <g id="理财">
                <rect id="矩形" fill="#000000" opacity="0" x="0" y="0" width="26" height="26"></rect>
                <path d="M22.976,20.2834146 C22.976,20.5620813 22.9283333,20.8224146 22.833,21.0644146 C22.7376667,21.3064146 22.602,21.5190813 22.426,21.7024146 C22.25,21.885748 22.0446667,22.028748 21.81,22.1314146 C21.5753333,22.2340813 21.3186667,22.2854146 21.04,22.2854146 L5.068,22.2854146 C4.78933333,22.2854146 4.52533333,22.2340813 4.276,22.1314146 C4.02666667,22.028748 3.80666667,21.885748 3.616,21.7024146 C3.42533333,21.5190813 3.275,21.3064146 3.165,21.0644146 C3.055,20.8224146 3,20.5620813 3,20.2834146 L3,9.30541463 C3,8.7480813 3.19433333,8.2750813 3.583,7.88641463 C3.97166667,7.49774797 4.44466667,7.30341463 5.002,7.30341463 L20.974,7.30341463 C21.5313333,7.30341463 22.0043333,7.49774797 22.393,7.88641463 C22.7816667,8.2750813 22.976,8.7480813 22.976,9.30541463 L22.976,12.2974146 L17.982,12.2974146 C17.4246667,12.2974146 16.9516667,12.4880813 16.563,12.8694146 C16.1743333,13.250748 15.98,13.7200813 15.98,14.2774146 C15.9946667,14.658748 16.0753333,14.9960813 16.222,15.2894146 C16.3393333,15.538748 16.5336667,15.7660813 16.805,15.9714146 C17.0763333,16.176748 17.4686667,16.2794146 17.982,16.2794146 L22.976,16.2794146 L22.976,20.2834146 L22.976,20.2834146 Z M19.984,6.29141463 L9.996,6.29141463 C10.788,5.88074797 11.536,5.48474797 12.24,5.10341463 C12.856,4.78074797 13.4646667,4.4580813 14.066,4.13541463 C14.6673333,3.81274797 15.1366667,3.56341463 15.474,3.38741463 C15.9873333,3.10874797 16.4456667,2.98041463 16.849,3.00241463 C17.2523333,3.02441463 17.5933333,3.0940813 17.872,3.21141463 C18.1946667,3.37274797 18.4733333,3.58541463 18.708,3.84941463 L19.984,6.29141463 Z M16.992,14.2774146 C16.992,13.998748 17.0873333,13.7640813 17.278,13.5734146 C17.4686667,13.382748 17.7033333,13.2874146 17.982,13.2874146 C18.2606667,13.2874146 18.4953333,13.382748 18.686,13.5734146 C18.8766667,13.7640813 18.972,13.998748 18.972,14.2774146 C18.972,14.5560813 18.8766667,14.7944146 18.686,14.9924146 C18.4953333,15.1904146 18.2606667,15.2894146 17.982,15.2894146 C17.7033333,15.2894146 17.4686667,15.1904146 17.278,14.9924146 C17.0873333,14.7944146 16.992,14.5560813 16.992,14.2774146 Z" id="形状" fill="url(#linearGradient-1)"></path>
            </g>
        </g>
    </g>
</svg>