<?xml version="1.0" encoding="UTF-8"?>
<svg width="196px" height="35px" viewBox="0 0 196 35" version="1.1" xmlns="http://www.w3.org/2000/svg" xmlns:xlink="http://www.w3.org/1999/xlink">
    <title>谷雨阅读备份</title>
    <g id="页面-1" stroke="none" stroke-width="1" fill="none" fill-rule="evenodd">
        <path d="M10.028,8.418 L19.918,0.138 L8.372,0.138 L2.714,4.968 L0.184,4.968 L1.426,8.418 L10.028,8.418 Z M44.298,8.418 L45.54,4.968 L42.964,4.968 L37.306,0.138 L25.806,0.138 L35.696,8.418 L44.298,8.418 Z M10.074,18.446 L16.698,9.108 L7.084,9.108 L2.53,14.95 L0,14.95 L0.966,18.446 L10.074,18.446 Z M44.712,18.446 L45.678,14.95 L43.102,14.95 L39.238,9.108 L19.572,9.108 L16.766,13.018 L32.062,13.018 L35.558,18.446 L44.712,18.446 Z M28.372,34.224 L30.304,29.946 L12.374,29.946 L12.374,24.104 L33.304,24.104 L33.304,34.224 L42.504,34.224 L42.504,19.826 L3.174,19.826 L3.174,34.224 L28.372,34.224 Z M60.028,34.086 L60.028,22.678 L62.466,29.808 L68.722,29.808 L66.238,22.54 L60.028,22.54 L60.028,14.03 L62.466,21.114 L68.722,21.114 L66.238,13.892 L60.028,13.892 L60.028,11.684 L68.768,11.684 L68.768,34.086 L77.002,34.086 L77.002,11.684 L85.742,11.684 L85.742,21.115 L85.742,29.808 L85.742,30.866 L82.936,30.866 L84.638,34.086 L93.976,34.086 L93.976,7.636 L77.002,7.636 L77.002,4.6 L95.54,4.6 L95.54,0.276 L50.184,0.276 L50.184,4.6 L68.768,4.6 L68.768,7.636 L51.794,7.636 L51.794,34.086 L60.028,34.086 Z M85.742,21.115 L83.258,13.892 L77.048,13.892 L79.486,21.114 L85.742,21.115 Z M85.742,29.808 L83.258,22.54 L77.048,22.54 L79.486,29.808 L85.742,29.808 Z M145.494,34.04 L145.494,0.23 L113.892,0.23 L113.892,4.784 L136.938,4.784 L136.938,30.866 L135.144,30.866 L135.374,30.268 L132.43,30.268 L132.43,23.322 L125.76,23.322 L125.76,33.212 L134.27,33.212 L134.822,31.74 L135.88,34.04 L145.494,34.04 Z M110.58,6.716 L111.73,3.818 L109.844,3.818 L108.832,0.23 L100.184,0.23 L101.886,6.716 L110.58,6.716 Z M126.174,22.31 L128.52,19.182 L118.262,19.182 L118.262,15.134 L128.52,15.134 L128.52,22.31 L135.236,22.31 L135.236,11.96 L132.108,11.96 L134.178,7.36 L126.956,7.36 L124.886,11.96 L121.85,11.96 L119.872,7.36 L112.65,7.36 L114.628,11.96 L111.592,11.96 L111.592,22.31 L126.174,22.31 Z M109.89,34.04 L109.89,7.82 L101.334,7.82 L101.334,34.04 L109.89,34.04 Z M119.366,33.212 L121.758,23.322 L114.858,23.322 L112.926,30.268 L110.534,30.268 L111.224,33.212 L119.366,33.212 Z M195.264,16.054 L195.264,7.084 L184.132,7.084 L184.132,5.29 L194.298,5.29 L194.298,1.518 L184.132,1.518 L184.132,0 L176.036,0 L176.036,1.518 L165.824,1.518 L165.824,5.29 L176.036,5.29 L176.036,7.084 L165.824,7.084 L165.824,10.672 L187.168,10.672 L187.168,16.054 L195.264,16.054 Z M161.592,8.096 L162.374,4.278 L160.12,4.278 L159.062,0.046 L150.966,0.046 L152.944,8.096 L161.592,8.096 Z M162.604,34.178 L163.984,29.854 L162.006,29.854 L162.006,9.338 L150.092,9.338 L150.092,13.892 L153.68,13.892 L153.68,34.178 L162.604,34.178 Z M175.162,15.962 L176.128,13.754 L174.426,13.754 L173.138,11.638 L165.594,11.638 L167.986,15.962 L175.162,15.962 Z M194.528,34.04 L195.632,30.774 L193.424,30.774 L189.376,26.22 L195.586,26.22 L195.586,21.942 L185.512,21.942 C185.512,21.758 185.558,21.574 185.558,21.344 L185.558,12.236 L177.462,12.236 L177.462,21.022 C177.462,21.344 177.416,21.666 177.37,21.942 L165.64,21.942 L165.64,26.22 L173.92,26.22 C171.758,27.324 168.676,27.922 165.18,28.244 L165.18,34.04 C172.172,33.948 178.658,32.246 182.384,28.704 L187.122,34.04 L194.528,34.04 Z M175.162,21.252 L176.128,18.998 L174.426,18.998 L173.138,16.928 L165.594,16.928 L167.986,21.252 L175.162,21.252 Z" id="谷雨阅读备份" fill="#FFFFFF" fill-rule="nonzero"></path>
    </g>
</svg>