<?xml version="1.0" encoding="UTF-8"?>
<svg width="80px" height="80px" viewBox="0 0 80 80" version="1.1" xmlns="http://www.w3.org/2000/svg" xmlns:xlink="http://www.w3.org/1999/xlink">
    <title>编组 87</title>
    <g id="页面-1" stroke="none" stroke-width="1" fill="none" fill-rule="evenodd">
        <g id="关于我们" transform="translate(-148.000000, -130.000000)">
            <g id="编组-87" transform="translate(148.000000, 130.000000)">
                <rect id="矩形" fill="#1D39C4" x="0" y="0" width="80" height="80" rx="16"></rect>
                <path d="M20.5931917,23.5735439 L25.6322007,19.3548387 L19.7494507,19.3548387 L16.8666688,21.8157501 L15.57762,21.8157501 L16.2104258,23.5735439 L20.5931917,23.5735439 Z M38.0539439,23.5735439 L38.6867497,21.8157501 L37.3742636,21.8157501 L34.4914817,19.3548387 L28.6321689,19.3548387 L33.6711779,23.5735439 L38.0539439,23.5735439 Z M20.616629,28.6828647 L23.9915932,23.9251027 L19.0932077,23.9251027 L16.7729198,26.9016336 L15.483871,26.9016336 L15.9760532,28.6828647 L20.616629,28.6828647 Z M38.2648792,28.6828647 L38.7570614,26.9016336 L37.4445754,26.9016336 L35.4758463,23.9251027 L25.4559119,23.9251027 L24.0262395,25.9172691 L31.8196351,25.9172691 L33.6008662,28.6828647 L38.2648792,28.6828647 Z M29.9395599,36.7218419 L30.9239245,34.5421775 L21.7884915,34.5421775 L21.7884915,31.5656466 L32.4524408,31.5656466 L32.4524408,36.7218419 L37.1398911,36.7218419 L37.1398911,29.3859822 L17.1010413,29.3859822 L17.1010413,36.7218419 L29.9395599,36.7218419 Z M46.0684648,36.6515301 L46.0684648,30.8390918 L47.3106391,34.4718657 L50.4981053,34.4718657 L49.2324937,30.7687801 L46.0684648,30.7687801 L46.0684648,26.4328886 L47.3106391,30.0422253 L50.4981053,30.0422253 L49.2324937,26.3625768 L46.0684648,26.3625768 L46.0684648,25.2375888 L50.5215425,25.2375888 L50.5215425,36.6515301 L54.7168105,36.6515301 L54.7168105,25.2375888 L59.1698882,25.2375888 L59.1698882,30.0427348 L59.1698882,34.4718657 L59.1698882,35.0109225 L57.7402159,35.0109225 L58.6073942,36.6515301 L63.3651562,36.6515301 L63.3651562,23.1751107 L54.7168105,23.1751107 L54.7168105,21.6282521 L64.1620227,21.6282521 L64.1620227,19.4251505 L41.052893,19.4251505 L41.052893,21.6282521 L50.5215425,21.6282521 L50.5215425,23.1751107 L41.8731968,23.1751107 L41.8731968,36.6515301 L46.0684648,36.6515301 Z M59.1698882,30.0427348 L57.9042767,26.3625768 L54.7402477,26.3625768 L55.9824221,30.0422253 L59.1698882,30.0427348 Z M59.1698882,34.4718657 L57.9042767,30.7687801 L54.7402477,30.7687801 L55.9824221,34.4718657 L59.1698882,34.4718657 Z M38.6633124,60.5748495 L38.6633124,43.3484699 L22.5619208,43.3484699 L22.5619208,45.6687578 L34.3039837,45.6687578 L34.3039837,58.9576792 L33.3899309,58.9576792 L33.5071172,58.6529949 L32.0071331,58.6529949 L32.0071331,55.11397 L28.6087316,55.11397 L28.6087316,60.152979 L32.9446231,60.152979 L33.2258701,59.402987 L33.7649269,60.5748495 L38.6633124,60.5748495 Z M20.8744387,46.6531223 L21.46037,45.1765755 L20.4994427,45.1765755 L19.9838232,43.3484699 L15.57762,43.3484699 L16.4447983,46.6531223 L20.8744387,46.6531223 Z M28.8196669,54.5983505 L30.0149667,53.0046174 L24.7884597,53.0046174 L24.7884597,50.9421393 L30.0149667,50.9421393 L30.0149667,54.5983505 L33.4368054,54.5983505 L33.4368054,49.324969 L31.8430723,49.324969 L32.8977486,46.9812438 L29.2181002,46.9812438 L28.1634239,49.324969 L26.6165653,49.324969 L25.6087635,46.9812438 L21.9291151,46.9812438 L22.9369169,49.324969 L21.3900583,49.324969 L21.3900583,54.5983505 L28.8196669,54.5983505 Z M20.52288,60.5748495 L20.52288,47.2156163 L16.1635513,47.2156163 L16.1635513,60.5748495 L20.52288,60.5748495 Z M25.3509537,60.152979 L26.5696908,55.11397 L23.0541031,55.11397 L22.0697386,58.6529949 L20.8510015,58.6529949 L21.2025603,60.152979 L25.3509537,60.152979 Z M64.0213992,51.4108843 L64.0213992,46.8406203 L58.3495844,46.8406203 L58.3495844,45.9265675 L63.529217,45.9265675 L63.529217,44.0047129 L58.3495844,44.0047129 L58.3495844,43.2312836 L54.2246282,43.2312836 L54.2246282,44.0047129 L49.0215584,44.0047129 L49.0215584,45.9265675 L54.2246282,45.9265675 L54.2246282,46.8406203 L49.0215584,46.8406203 L49.0215584,48.6687259 L59.896443,48.6687259 L59.896443,51.4108843 L64.0213992,51.4108843 Z M46.8653313,47.3562398 L47.2637646,45.410948 L46.1153393,45.410948 L45.5762825,43.2547209 L41.4513263,43.2547209 L42.4591281,47.3562398 L46.8653313,47.3562398 Z M47.3809509,60.6451613 L48.0840684,58.4420597 L47.0762666,58.4420597 L47.0762666,47.9890456 L41.0060185,47.9890456 L41.0060185,50.3093335 L42.8341241,50.3093335 L42.8341241,60.6451613 L47.3809509,60.6451613 Z M53.7793204,51.3640098 L54.2715027,50.2390217 L53.4043244,50.2390217 L52.7480814,49.1609082 L48.9043722,49.1609082 L50.1231093,51.3640098 L53.7793204,51.3640098 Z M63.6464032,60.5748495 L64.2088972,58.9108047 L63.0839092,58.9108047 L61.0214311,56.5905168 L64.18546,56.5905168 L64.18546,54.4108525 L59.052702,54.4108525 C59.052702,54.3171035 59.0761392,54.2233545 59.0761392,54.1061682 L59.0761392,49.4655925 L54.951183,49.4655925 L54.951183,53.9421074 C54.951183,54.1061682 54.9277458,54.270229 54.9043085,54.4108525 L48.9278094,54.4108525 L48.9278094,56.5905168 L53.1465147,56.5905168 C52.0449639,57.1530109 50.474668,57.4576951 48.6934369,57.6217559 L48.6934369,60.5748495 C52.2558991,60.527975 55.5605515,59.6607967 57.4589689,57.8561284 L59.8730058,60.5748495 L63.6464032,60.5748495 Z M53.7793204,54.0592937 L54.2715027,52.9108684 L53.4043244,52.9108684 L52.7480814,51.8561921 L48.9043722,51.8561921 L50.1231093,54.0592937 L53.7793204,54.0592937 Z" id="谷雨阅读备份" fill="#FFFFFF" fill-rule="nonzero"></path>
            </g>
        </g>
    </g>
</svg>