<?xml version="1.0" encoding="UTF-8"?>
<svg width="26px" height="26px" viewBox="0 0 26 26" version="1.1" xmlns="http://www.w3.org/2000/svg" xmlns:xlink="http://www.w3.org/1999/xlink">
    <title>编组 8</title>
    <defs>
        <linearGradient x1="19.5716079%" y1="-2.87510553e-13%" x2="50%" y2="100%" id="linearGradient-1">
            <stop stop-color="#FD8D3C" offset="0%"></stop>
            <stop stop-color="#FA541C" offset="100%"></stop>
        </linearGradient>
    </defs>
    <g id="页面-1" stroke="none" stroke-width="1" fill="none" fill-rule="evenodd">
        <g id="编组-8" fill-rule="nonzero">
            <g id="编组-91">
                <rect id="矩形" fill="#000000" opacity="0" x="0" y="0" width="26" height="26"></rect>
                <path d="M11.9356595,5.85907279 L8.91787348,5.85907279 C8.70923642,5.85907279 8.54903297,5.81063918 8.43726312,5.71377197 C8.32549327,5.61690476 8.24725438,5.49395793 8.20254643,5.34493146 C8.15783849,5.195905 8.13548452,5.02825022 8.13548452,4.84196713 C8.13548452,4.65568403 8.15038717,4.48057793 8.18019246,4.31664883 C8.19509511,4.15271972 8.2249004,3.97388796 8.26960835,3.78015355 C8.31431629,3.58641915 8.37765254,3.42249003 8.4596171,3.2883662 C8.54158165,3.15424238 8.64962585,3.06482649 8.78374967,3.02011855 C8.9178735,2.97541061 9.08180261,3.01266722 9.27553702,3.1318884 C9.49907672,3.26601222 9.75242172,3.41131303 10.035572,3.56779082 C10.3187223,3.72426861 10.5944213,3.8807464 10.8626689,4.03722419 C11.1309165,4.19370198 11.3805359,4.33527713 11.6115269,4.46194963 C11.842518,4.58862213 12.0176241,4.68921499 12.1368452,4.76372822 C12.2858717,4.86804675 12.3976415,4.98354226 12.4721548,5.11021476 C12.546668,5.23688726 12.5764733,5.35610843 12.5615706,5.46787828 C12.546668,5.57964813 12.4870574,5.67278966 12.3827389,5.7473029 C12.2784204,5.82181613 12.1293939,5.85907279 11.9356595,5.85907279 L11.9356595,5.85907279 Z M13.6792691,5.83671883 L16.6747011,5.83671883 C16.8833382,5.83671883 17.0435417,5.78828523 17.1553115,5.69141802 C17.2670814,5.59455081 17.3453202,5.47160397 17.3900282,5.32257751 C17.4347361,5.17355104 17.4570901,5.00589626 17.4570901,4.81961317 C17.4570901,4.63333008 17.4496388,4.45822398 17.4347361,4.29429488 C17.4049308,4.13036576 17.3713999,3.95525966 17.3341433,3.76897658 C17.2968866,3.5826935 17.2372761,3.42249005 17.1553115,3.28836623 C17.0733469,3.1542424 16.9653028,3.06482652 16.8311789,3.02011857 C16.6970551,2.97541063 16.533126,3.00521593 16.3393916,3.10953446 C16.1158519,3.24365829 15.8625069,3.3889591 15.5793566,3.54543689 C15.2962063,3.70191468 15.0167816,3.85839247 14.7410827,4.01487026 C14.4653838,4.17134805 14.2120388,4.31292319 13.9810477,4.43959569 C13.7500566,4.56626819 13.5824019,4.66686106 13.4780834,4.74137429 C13.3141542,4.84569281 13.1949331,4.96118832 13.1204198,5.08786082 C13.0459066,5.21453332 13.0161013,5.3337545 13.031004,5.44552434 C13.0459066,5.55729419 13.1055172,5.65043573 13.2098357,5.72494896 C13.3141542,5.79946219 13.470632,5.83671883 13.6792691,5.83671883 L13.6792691,5.83671883 Z M11.6227039,7.31208085 L5.1400525,7.31208085 C4.6631678,7.31208085 4.35393788,7.39031975 4.21236273,7.54679754 C4.07078758,7.70327533 4,7.95289466 4,8.29565555 L4,10.2628049 C4,10.6353711 4.07823889,10.9110701 4.23471668,11.0899018 C4.39119447,11.2687336 4.7004244,11.3581495 5.16240646,11.3581495 L11.6227039,11.3581495 L11.6227039,7.31208085 L11.6227039,7.31208085 Z M14.0592866,7.31208085 L20.4525221,7.31208085 C20.9294068,7.31208085 21.2535394,7.40522239 21.4249198,7.59150547 C21.5963003,7.77778855 21.6819905,8.04231053 21.6819905,8.38507142 L21.6819905,10.3075129 C21.6819905,10.6651764 21.6037516,10.9296984 21.4472738,11.1010788 C21.290796,11.2724592 20.9815661,11.3581495 20.519584,11.3581495 L14.0592866,11.3581495 L14.0592866,7.31208085 L14.0592866,7.31208085 Z M11.6227039,12.5429099 L4.760035,12.5429099 L4.760035,16.208961 L4.760035,17.6619691 L4.760035,19.0255613 L4.760035,20.1879677 L4.760035,20.9927107 C4.760035,21.7527457 4.97612338,22.3414002 5.40830013,22.7586743 C5.84047688,23.1759484 6.51109599,23.3845855 7.42015746,23.3845855 L11.6227039,23.3845855 L11.6227039,12.5429099 L11.6227039,12.5429099 Z M14.0592866,12.5429099 L20.8996015,12.5429099 L20.8996015,20.9256487 C20.8846989,21.6856837 20.6686105,22.2855153 20.2513364,22.7251433 C19.8340623,23.1647714 19.1708945,23.3845855 18.2618331,23.3845855 L14.0592866,23.3845855 L14.0592866,12.5429099 L14.0592866,12.5429099 Z" id="形状" fill="url(#linearGradient-1)"></path>
            </g>
        </g>
    </g>
</svg>