<?xml version="1.0" encoding="UTF-8"?>
<svg width="26px" height="26px" viewBox="0 0 26 26" version="1.1" xmlns="http://www.w3.org/2000/svg" xmlns:xlink="http://www.w3.org/1999/xlink">
    <title>编组 10</title>
    <defs>
        <linearGradient x1="14.7480361%" y1="-4.4497298e-13%" x2="50%" y2="100%" id="linearGradient-1">
            <stop stop-color="#B3DA0C" offset="0%"></stop>
            <stop stop-color="#7CB305" offset="100%"></stop>
        </linearGradient>
    </defs>
    <g id="页面-1" stroke="none" stroke-width="1" fill="none" fill-rule="evenodd">
        <g id="编组-10" fill-rule="nonzero">
            <g id="dkw_账单">
                <rect id="矩形" fill="#000000" opacity="0" x="0" y="0" width="26" height="26"></rect>
                <path d="M20.185,4 L7.18499999,4 C6.0099772,4.07334339 5.07334337,5.00997721 5,6.18500001 L5,7.27500002 C4.42201948,7.5120384 4.03257779,8.0611512 4,8.68500002 C4.03257779,9.30884883 4.42201948,9.85796163 5,10.095 L5,12.28 C4.42201948,12.5170384 4.03257779,13.0661512 4,13.69 C4.03257779,14.3138488 4.42201948,14.8629616 5,15.1 L5,17.285 C4.42201948,17.5220384 4.03257779,18.0711512 4,18.695 C4.03257779,19.3188488 4.42201948,19.8679616 5,20.105 L5,21.185 C5,22.29 6.08499998,22.995 7.18999998,22.995 L20.185,22.995 C20.6756495,23.0310553 21.1577569,22.852153 21.5061135,22.5047561 C21.8544701,22.1573592 22.0347016,21.6757471 22,21.185 L22,6.18500001 C22,5.08 21.29,4 20.185,4 Z M16.685,12.5 C16.9611424,12.5 17.185,12.7238576 17.185,13 C17.185,13.2761424 16.9611424,13.5 16.685,13.5 L14,13.5 L14,15 L16.685,15 C16.9611423,15 17.185,15.2238576 17.185,15.5 C17.185,15.7761424 16.9611423,16 16.685,16 L14,16 L14,17.685 C14,17.9611424 13.7761424,18.185 13.5,18.185 C13.2238576,18.185 13,17.9611424 13,17.685 L13,16 L10.685,16 C10.4088576,16 10.185,15.7761424 10.185,15.5 C10.185,15.2238576 10.4088576,15 10.685,15 L13,15 L13,13.5 L10.685,13.5 C10.4088576,13.5 10.185,13.2761424 10.185,13 C10.185,12.7238576 10.4088576,12.5 10.685,12.5 L12.815,12.5 L10.185,9.94500002 C10.0919976,9.87001467 10.0379289,9.75696656 10.0379289,9.63750002 C10.0379289,9.51803347 10.0919976,9.40498536 10.185,9.33000002 C10.3800187,9.13613821 10.6949813,9.13613821 10.89,9.33000002 L13.535,11.97 L16.185,9.30500001 C16.3800187,9.11113821 16.6949813,9.11113821 16.89,9.30500001 C16.9832552,9.38936435 17.0364619,9.50924677 17.0364619,9.63500001 C17.0364619,9.76075324 16.9832552,9.88063566 16.89,9.96500001 L14.245,12.52 L16.685,12.52 L16.685,12.5 Z" id="形状" fill="url(#linearGradient-1)"></path>
            </g>
        </g>
    </g>
</svg>