<?xml version="1.0" encoding="UTF-8"?>
<svg width="26px" height="26px" viewBox="0 0 26 26" version="1.1" xmlns="http://www.w3.org/2000/svg" xmlns:xlink="http://www.w3.org/1999/xlink">
    <title>编组 9</title>
    <defs>
        <linearGradient x1="50%" y1="5.4780911e-13%" x2="50%" y2="100%" id="linearGradient-1">
            <stop stop-color="#35C3FF" offset="0%"></stop>
            <stop stop-color="#1890FF" offset="100%"></stop>
        </linearGradient>
    </defs>
    <g id="页面-1" stroke="none" stroke-width="1" fill="none" fill-rule="evenodd">
        <g id="编组-9" fill-rule="nonzero">
            <g id="签到-面性3-0">
                <rect id="矩形" fill="#000000" opacity="0" x="0" y="0" width="26" height="26"></rect>
                <path d="M20.4570703,5 L5.79972656,5 C4.2534375,5 3,6.2534375 3,7.79972656 L3,18.6740625 C3,20.2203516 4.2534375,21.4737891 5.79972656,21.4737891 L20.4570703,21.4737891 C22.0033594,21.4737891 23.2567969,20.2203516 23.2567969,18.6740625 L23.2567969,7.79972656 C23.2567969,6.2534375 22.0033594,5 20.4570703,5 Z M21.4381641,9.10757812 L4.81863281,9.10757812 L4.81863281,7.76992187 C4.81863281,7.23699219 5.25066406,6.80523437 5.78332031,6.80523437 L20.4734766,6.80523437 C21.0064063,6.80523437 21.4381641,7.23726562 21.4381641,7.76992187 L21.4381641,9.10757812 L21.4381641,9.10757812 Z" id="形状" fill="url(#linearGradient-1)"></path>
                <path d="M8.37042969,7.95699219 C7.84050781,7.95699219 7.41121094,7.52742187 7.41121094,6.99777344 L7.41121094,5.20347656 C7.41121094,4.67355469 7.84078125,4.24425781 8.37042969,4.24425781 C8.90035156,4.24425781 9.32964844,4.67382812 9.32964844,5.20347656 L9.32964844,6.99777344 C9.32964844,7.52769531 8.90007813,7.95699219 8.37042969,7.95699219 Z M17.6232813,7.95699219 C17.0933594,7.95699219 16.6640625,7.52742187 16.6640625,6.99777344 L16.6640625,5.20347656 C16.6640625,4.67355469 17.0936328,4.24425781 17.6232813,4.24425781 C18.1532031,4.24425781 18.5825,4.67382812 18.5825,5.20347656 L18.5825,6.99777344 C18.5825,7.52769531 18.1529297,7.95699219 17.6232813,7.95699219 Z" id="形状" fill="#33BFFF"></path>
                <path d="M13.3486719,19.0681641 C13.1329297,19.0681641 12.9171875,18.9858594 12.7525781,18.82125 L10.7452734,16.8133984 C10.4160547,16.4841797 10.4160547,15.9504297 10.7452734,15.6212109 C11.0744922,15.2919922 11.6082422,15.2919922 11.9374609,15.6212109 L13.9447656,17.6290625 C14.2739844,17.9582812 14.2739844,18.4920312 13.9447656,18.82125 C13.7801563,18.9858594 13.5644141,19.0681641 13.3486719,19.0681641 Z" id="路径" fill="#FFFFFF"></path>
                <path d="M13.4555859,19.0681646 C13.2398438,19.0681646 13.0241016,18.9858594 12.8594922,18.82125 C12.5302734,18.4920312 12.5302734,17.9582812 12.8594922,17.6290625 L17.1048828,13.383125 C17.4341016,13.0539062 17.9678516,13.0539062 18.2970703,13.383125 C18.6262891,13.7123437 18.6262891,14.2460937 18.2970703,14.5753125 L14.0519531,18.82125 C13.8938899,18.9795576 13.6792938,19.0684069 13.4555859,19.0681646 L13.4555859,19.0681646 Z" id="路径" fill="#FFFFFF"></path>
            </g>
        </g>
    </g>
</svg>