<?xml version="1.0" encoding="UTF-8"?>
<svg width="24px" height="24px" viewBox="0 0 24 24" version="1.1" xmlns="http://www.w3.org/2000/svg" xmlns:xlink="http://www.w3.org/1999/xlink">
    <title>编组 31</title>
    <g id="页面-1" stroke="none" stroke-width="1" fill="none" fill-rule="evenodd">
        <g id="签到-新人任务" transform="translate(-216.000000, -174.000000)" fill-rule="nonzero">
            <g id="编组-11" transform="translate(18.000000, 94.000000)">
                <g id="编组-3备份-2" transform="translate(178.000000, 54.000000)">
                    <g id="编组" transform="translate(18.000000, 10.000000)">
                        <g id="编组-31" transform="translate(2.000000, 16.000000)">
                            <rect id="矩形" fill="#000000" opacity="0" x="0" y="0" width="24" height="24"></rect>
                            <path d="M2.671875,12.375 C2.671875,17.5267812 6.84821882,21.703125 12,21.703125 C17.1517812,21.703125 21.328125,17.5267812 21.328125,12.375 C21.328125,7.22321882 17.1517812,3.046875 12,3.046875 C6.84821882,3.046875 2.671875,7.22321882 2.671875,12.375 Z" id="路径" fill="#F2814E"></path>
                            <path d="M2.671875,11.625 C2.671875,16.7767812 6.84821882,20.953125 12,20.953125 C17.1517812,20.953125 21.328125,16.7767812 21.328125,11.625 C21.328125,6.47321882 17.1517812,2.296875 12,2.296875 C6.84821882,2.296875 2.671875,6.47321882 2.671875,11.625 Z" id="路径" fill="#FFBE4E"></path>
                            <path d="M5.390625,11.625 C5.390625,15.275257 8.34974298,18.234375 12,18.234375 C15.650257,18.234375 18.609375,15.275257 18.609375,11.625 C18.609375,7.97474298 15.650257,5.015625 12,5.015625 C8.34974298,5.015625 5.390625,7.97474298 5.390625,11.625 L5.390625,11.625 Z" id="路径" fill="#FFBC54"></path>
                            <path d="M12,4.23440625 C16.0789687,4.23440625 19.3905937,7.54603125 19.3905937,11.625 C19.3905937,15.7039687 16.0789687,19.0155937 12,19.0155937 C7.92103125,19.0155937 4.60940625,15.7039687 4.60940625,11.625 C4.60940625,7.54603125 7.92103125,4.23440625 12,4.23440625 Z M12,5.015625 C8.3521875,5.015625 5.390625,7.9771875 5.390625,11.625 C5.390625,15.2728125 8.3521875,18.234375 12,18.234375 C15.6478125,18.234375 18.609375,15.2728125 18.609375,11.625 C18.609375,7.9771875 15.6478125,5.015625 12,5.015625 Z" id="形状" fill="#FA7B4D"></path>
                            <path d="M12,4.23440625 C16.0789687,4.23440625 19.3905937,7.54603125 19.3905937,11.625 C19.3905937,15.7039687 16.0789687,19.0155937 12,19.0155937 C7.92103125,19.0155937 4.60940625,15.7039687 4.60940625,11.625 C4.60940625,7.54603125 7.92103125,4.23440625 12,4.23440625 Z M12,5.015625 C8.3521875,5.015625 5.390625,7.9771875 5.390625,11.625 C5.390625,15.2728125 8.3521875,18.234375 12,18.234375 C15.6478125,18.234375 18.609375,15.2728125 18.609375,11.625 C18.609375,7.9771875 15.6478125,5.015625 12,5.015625 Z" id="形状" fill="#FA7B4D"></path>
                            <path d="M11.5806562,16.527375 L12.8779687,16.527375 L12.8779687,15.4100625 C14.1974062,15.1659375 14.8515937,14.3584687 14.8515937,13.325625 C14.8515937,11.3069062 11.5251562,11.3537812 11.5251562,10.4055 C11.5251562,9.936 11.8356562,9.75759375 12.4232812,9.75759375 C12.933375,9.75759375 13.3325625,9.936 13.7871562,10.2834375 L14.7629062,9.3256875 C14.2750312,8.87503125 13.6874062,8.5464375 12.8779687,8.443125 L12.8779687,7.3539375 L11.5806562,7.3539375 L11.5806562,8.461875 C10.3720312,8.6685 9.65128125,9.41025 9.65128125,10.4805937 C9.65128125,12.396 12.9666562,12.4242187 12.9666562,13.4476875 C12.9666562,13.9077187 12.6672187,14.1330937 11.9798437,14.1330937 C11.4031875,14.1330937 10.8488437,13.9359375 10.1946562,13.5134062 L9.32971875,14.6400937 C9.95071875,15.1095937 10.8376875,15.3912187 11.5806562,15.4664062 L11.5806562,16.527375 L11.5806562,16.527375 Z" id="路径" fill="#F97950"></path>
                            <path d="M11.5806562,16.058625 L12.8779687,16.058625 L12.8779687,14.9413125 C14.1974062,14.6971875 14.8515937,13.8897187 14.8515937,12.856875 C14.8515937,10.8381562 11.5251562,10.8850312 11.5251562,9.93675 C11.5251562,9.46725 11.8356562,9.28884375 12.4232812,9.28884375 C12.933375,9.28884375 13.3325625,9.46725 13.7871562,9.8146875 L14.7629062,8.8569375 C14.2750312,8.40628125 13.6874062,8.0776875 12.8779687,7.974375 L12.8779687,6.8851875 L11.5806562,6.8851875 L11.5806562,7.993125 C10.3720312,8.19975 9.65128125,8.9415 9.65128125,10.0118437 C9.65128125,11.92725 12.9666562,11.9554687 12.9666562,12.9789375 C12.9666562,13.4389687 12.6672187,13.6643437 11.9798437,13.6643437 C11.4031875,13.6643437 10.8488437,13.4671875 10.1946562,13.0446562 L9.32971875,14.1713437 C9.95071875,14.6408437 10.8376875,14.9224687 11.5806562,14.9976562 L11.5806562,16.058625 L11.5806562,16.058625 Z" id="路径" fill="#FFED8C"></path>
                            <path d="M6.0328125,18.7928437 C6.364875,18.625875 6.76228125,18.454875 6.890625,17.953125 C7.36246875,16.1091562 16.828125,6.046875 16.828125,6.046875 C16.828125,6.046875 16.8368437,4.81303125 17.5277812,4.1124375 C19.8321562,5.8115625 21.328125,8.5449375 21.328125,11.625 C21.328125,16.773375 17.148375,20.953125 12,20.953125 C9.73125,20.953125 7.65065625,20.1414375 6.0328125,18.7928437 Z" id="路径" fill-opacity="0.4" fill="#F47A38"></path>
                            <path d="M16.7881875,7.0708125 C16.5280407,6.79992721 16.5256917,6.37272978 16.7828437,6.099 C16.8119062,6.064125 16.828125,6.046875 16.828125,6.046875 L16.828125,6.0435 C16.82704,6.04162629 16.8274772,6.03924197 16.8291562,6.037875 C16.8308036,6.03646995 16.8332277,6.03646995 16.834875,6.037875 C18.400125,7.3929375 19.3905937,9.39421875 19.3905937,11.625 C19.3905937,15.7039688 16.0789687,19.0155938 12,19.0155938 C10.2946875,19.0155938 8.7234375,18.4367813 7.47234375,17.4650625 C7.33014294,17.352336 7.29744713,17.1497359 7.39696875,16.998 L7.396125,16.9975313 C7.46107123,16.8985661 7.56427451,16.8310942 7.68098044,16.8112994 C7.79768637,16.7915045 7.91736586,16.8211727 8.0113125,16.8931875 C9.1198125,17.7349688 10.5020625,18.234375 12,18.234375 C15.6478125,18.234375 18.609375,15.2728125 18.609375,11.625 C18.609375,9.86053125 17.9164687,8.25665625 16.7881875,7.0708125 Z" id="路径" fill="#FFBA58"></path>
                            <path d="M18.4539375,13.0550625 C18.4776374,12.9438413 18.5469232,12.8476703 18.6449184,12.7899747 C18.7429135,12.7322792 18.8606229,12.7183549 18.969375,12.7515938 C18.9781875,12.7545 18.987,12.757125 18.9957187,12.7599375 C19.1647273,12.8132081 19.2661013,12.9856332 19.2304687,13.1592188 C18.79875,15.202875 17.5210312,16.9359375 15.7816875,17.9747813 C15.6144212,18.0732346 15.3996614,18.0276709 15.2867812,17.8697813 L15.2871562,17.8694063 C15.2214225,17.7773925 15.1972546,17.6620437 15.2205236,17.551382 C15.2437927,17.4407204 15.3123692,17.3448732 15.4095937,17.287125 C16.9345312,16.366125 18.058125,14.846625 18.4539375,13.0550625 L18.4539375,13.0550625 Z" id="路径" fill="#FFED8C"></path>
                        </g>
                    </g>
                </g>
            </g>
        </g>
    </g>
</svg>