<?xml version="1.0" encoding="UTF-8"?>
<svg width="30px" height="30px" viewBox="0 0 30 30" version="1.1" xmlns="http://www.w3.org/2000/svg" xmlns:xlink="http://www.w3.org/1999/xlink">
    <title>微信支付</title>
    <g id="页面-1" stroke="none" stroke-width="1" fill="none" fill-rule="evenodd">
        <g id="微信支付" fill-rule="nonzero">
            <rect id="矩形" fill="#000000" opacity="0" x="0" y="0" width="30" height="30"></rect>
            <path d="M11.6382453,17.7208293 C11.5435095,17.7687248 11.436614,17.7963781 11.3230749,17.7963781 C11.0606449,17.7963781 10.8324156,17.6517801 10.7126408,17.4382769 L10.666712,17.3375691 L8.7550161,13.1428851 C8.73439009,13.0970762 8.72148684,13.045679 8.72148684,12.995577 C8.72148684,12.8021721 8.87819659,12.6453185 9.07160146,12.6453185 C9.15014821,12.6453185 9.22257911,12.6712929 9.28117138,12.7148473 L11.536866,14.3208225 C11.7018022,14.4288692 11.8985888,14.4920424 12.1102453,14.4920424 C12.2368314,14.4920424 12.3571339,14.4685383 12.4694977,14.4275501 L23.0783689,9.70584743 C21.176962,7.46478288 18.0449975,6 14.5008244,6 C8.70124455,6 4,9.91776776 4,14.7506591 C4,17.3876472 5.41453694,19.76103 7.628332,21.3650625 C7.80605151,21.4917446 7.92218078,21.7000434 7.92218078,21.93518 C7.92218078,22.0128153 7.9054881,22.0842149 7.88538972,22.1582048 C7.7085576,22.8179734 7.42540558,23.8738815 7.41221453,23.923384 C7.39017348,24.0061039 7.35558892,24.0926132 7.35558892,24.1792665 C7.35558892,24.3725274 7.51244259,24.5292612 7.70584745,24.5292612 C7.7820438,24.5292612 7.84389784,24.5010803 7.90810232,24.4641213 L10.2069917,23.1370531 C10.3798904,23.0370649 10.5629823,22.9753547 10.7645896,22.9753547 C10.8718689,22.9753547 10.9755986,22.9918315 11.0733563,23.0217153 C12.1457412,23.3301462 13.3028127,23.5016299 14.5008485,23.5016299 C20.3001885,23.5016299 25.0018408,19.5837662 25.0018408,14.750707 C25.0018408,13.2870034 24.5681908,11.9083222 23.8057477,10.6958002 L11.7148253,17.6765793 L11.6382453,17.7208293 Z" id="路径" fill="#00C800"></path>
        </g>
    </g>
</svg>