<?xml version="1.0" encoding="UTF-8"?>
<svg width="30px" height="30px" viewBox="0 0 30 30" version="1.1" xmlns="http://www.w3.org/2000/svg" xmlns:xlink="http://www.w3.org/1999/xlink">
    <title>支付宝</title>
    <g id="页面-1" stroke="none" stroke-width="1" fill="none" fill-rule="evenodd">
        <g id="支付宝" fill-rule="nonzero">
            <rect id="矩形" fill="#000000" opacity="0" x="0" y="0" width="30" height="30"></rect>
            <path d="M8.40869564,16.5130435 C8.11304346,16.7391304 7.81739128,17.0695652 7.73043478,17.5043478 C7.60869565,18.0782609 7.71304348,18.8086957 8.25217392,19.3826087 C8.93043478,20.0608695 9.95652176,20.2521739 10.4086957,20.2869565 C11.6086957,20.3739131 12.8956522,19.7652174 13.8695652,19.1043478 C14.2521739,18.8434783 14.8956522,18.3043478 15.5217391,17.4695652 C14.1304348,16.7565218 12.3913044,15.9565217 10.5478261,16.026087 C9.57391305,16.0608696 8.89565217,16.2521739 8.40869564,16.5130435 L8.40869564,16.5130435 Z M26.0434783,19.6956522 C26.6521739,18.2521739 27,16.6695652 27,15 C27,8.39130436 21.6086956,3 15,3 C8.39130436,3 3,8.39130436 3,15 C3,21.6086956 8.39130436,27 15,27 C19,27 22.5304348,25.0347826 24.7217391,22.026087 C22.6521739,21.0173913 19.2608696,19.3130435 17.1565217,18.3043478 C16.1652174,19.4521739 14.6869565,20.5826087 13.0173913,21.0695652 C11.9739131,21.3826087 11.0173913,21.5043478 10.0434783,21.2956522 C9.05217391,21.0869565 8.33913042,20.6347826 7.92173913,20.1826087 C7.71304348,19.9391304 7.46956521,19.6608696 7.27826086,19.2956522 C7.29565216,19.3130435 7.29565216,19.3478261 7.29565216,19.3652174 C7.29565216,19.3652174 7.19130434,19.1913043 7.12173914,18.9130435 C7.08695653,18.773913 7.05217392,18.6347826 7.03478262,18.4956522 C7.01739131,18.3913043 7.01739131,18.2869565 7.03478262,18.2 C7.01739131,18.0260869 7.03478262,17.8347826 7.06956523,17.6434783 C7.17391305,17.1565217 7.36521741,16.6173913 7.90434783,16.1130435 C9.05217391,14.9826087 10.6,14.9304348 11.4,14.9304348 C12.5826087,14.9478261 14.6347826,15.4521739 16.373913,16.0782609 C16.8608696,15.0521739 17.173913,13.973913 17.3652174,13.2260869 L10.1478261,13.2260869 L10.1478261,12.4434783 L13.8521739,12.4434783 L13.8521739,10.8782609 L9.3826087,10.8782609 L9.3826087,10.0782609 L13.8521739,10.0782609 L13.8521739,8.51304347 C13.8521739,8.30434781 13.9043478,8.13043477 14.2347826,8.13043479 L15.9913043,8.13043479 L15.9913043,10.0782609 L20.8434783,10.0782609 L20.8434783,10.8608696 L15.9913043,10.8608696 L15.9913043,12.426087 L19.8695652,12.426087 C19.8695652,12.426087 19.4695652,14.6 18.2695652,16.7391304 C20.9652174,17.6956522 24.773913,19.1913044 26.0434783,19.6956522 Z" id="形状" fill="#06B4FD"></path>
        </g>
    </g>
</svg>