<?xml version="1.0" encoding="UTF-8"?>
<svg width="201px" height="51px" viewBox="0 0 201 51" version="1.1" xmlns="http://www.w3.org/2000/svg" xmlns:xlink="http://www.w3.org/1999/xlink">
    <title>编组 6备份</title>
    <defs>
        <linearGradient x1="50%" y1="0%" x2="50%" y2="100%" id="linearGradient-1">
            <stop stop-color="#FFFCB8" offset="0%"></stop>
            <stop stop-color="#FFE121" offset="100%"></stop>
        </linearGradient>
    </defs>
    <g id="页面-1" stroke="none" stroke-width="1" fill="none" fill-rule="evenodd">
        <g id="编组-6备份" fill-rule="nonzero">
            <path d="M6.09375,50.109375 C8.66666667,50.2447917 10.6979167,49.296875 12.1875,47.265625 L12.1875,47.265625 L22.953125,33.65625 L33.515625,47.671875 C34.5989583,49.296875 36.96875,50.109375 40.625,50.109375 L40.625,50.109375 L45.5,50.109375 L45.5,43.8125 L43.0625,43.8125 C40.625,43.9479167 38.8645833,42.9322917 37.78125,40.765625 L37.78125,40.765625 L28.640625,27.5625 L45.09375,27.5625 L45.09375,21.0625 L26.8125,21.0625 L26.8125,10.296875 L45.296875,10.296875 L45.296875,4 L0.40625,4 L0.40625,10.296875 L18.078125,10.296875 L18.078125,21.0625 L0,21.0625 L0,27.5625 L16.65625,27.5625 L6.296875,41.78125 C5.34895833,43.2708333 4.265625,43.9479167 3.046875,43.8125 L3.046875,43.8125 L0,43.8125 L0,50.109375 L6.09375,50.109375 Z M86.53125,25.9375 C87.6145833,27.15625 89.375,27.6979167 91.8125,27.5625 L91.8125,27.5625 L98.71875,27.5625 L98.71875,21.671875 L95.0625,21.671875 C93.4375,21.8072917 92.4895833,21.671875 92.21875,21.265625 L92.21875,21.265625 L90.1875,19.640625 L98.71875,11.515625 L98.71875,5.828125 L83.484375,5.828125 L83.6875,4 L75.96875,4 L75.15625,6.4375 C74.75,7.38541667 74.2083333,7.859375 73.53125,7.859375 L73.53125,7.859375 L72.109375,7.859375 L72.109375,13.546875 L75.5625,13.546875 C77.7291667,13.6822917 79.6927083,13.0052083 81.453125,11.515625 L81.453125,11.515625 L87.34375,11.515625 L83.6875,14.765625 L74.546875,14.765625 L79.015625,19.640625 L77.1875,20.859375 C76.375,21.5364583 75.6302083,21.8072917 74.953125,21.671875 L74.953125,21.671875 L72.109375,21.671875 L72.109375,27.359375 L77.796875,27.359375 C79.2864583,27.4947917 80.9114583,26.953125 82.671875,25.734375 L82.671875,25.734375 L84.5,24.3125 L86.53125,25.9375 Z M59.3125,50.3125 L59.3125,48.078125 L67.03125,48.078125 C69.6041667,48.078125 70.8229167,46.7916667 70.6875,44.21875 L70.6875,44.21875 L70.6875,31.015625 C70.6875,27.9010417 70.0104167,26.2083333 68.65625,25.9375 C70.0104167,25.6666667 70.7552083,24.3802083 70.890625,22.078125 L70.890625,22.078125 L70.890625,4.8125 L52.8125,4.8125 L52.8125,50.3125 L59.3125,50.3125 Z M63.171875,23.296875 L59.515625,23.296875 L59.515625,10.5 L64.390625,10.5 L64.390625,21.875 C64.390625,22.8229167 63.984375,23.296875 63.171875,23.296875 L63.171875,23.296875 Z M91,50.109375 L91,46.453125 L98.71875,46.453125 L98.71875,40.765625 L91.203125,40.765625 L91.203125,34.875 L98.3125,34.875 L98.3125,29.796875 L91,29.796875 L91,27.96875 L84.09375,27.96875 L84.09375,30 L72.71875,30 L72.71875,40.5625 L71.5,40.5625 L71.5,46.453125 L84.296875,46.453125 L84.296875,50.109375 L91,50.109375 Z M64.1875,40.96875 C64.1875,42.0520833 63.7135417,42.5260417 62.765625,42.390625 L62.765625,42.390625 L59.515625,42.390625 L59.515625,29.390625 L62.96875,29.390625 C63.78125,29.390625 64.1875,29.9322917 64.1875,31.015625 L64.1875,31.015625 L64.1875,40.96875 Z M84.296875,40.5625 L79.21875,40.5625 L79.21875,34.875 L84.296875,34.875 L84.296875,40.5625 Z M138.734375,46.65625 C139.953125,49.2291667 142.390625,50.4479167 146.046875,50.3125 L146.046875,50.3125 L149.703125,50.3125 L149.703125,43.8125 L147.875,43.8125 C146.25,43.9479167 145.166667,43.3385417 144.625,41.984375 L144.625,41.984375 L131.828125,18.015625 L149.703125,18.015625 L149.703125,11.71875 L130.8125,11.71875 L130.8125,4 L122.078125,4 L122.078125,11.71875 L103.390625,11.71875 L103.390625,18.015625 L121.265625,18.015625 L108.875,42.1875 C108.0625,43.6770833 106.911458,44.2864583 105.421875,44.015625 L105.421875,44.015625 L103.390625,44.015625 L103.390625,50.109375 L106.234375,50.109375 C109.213542,50.109375 111.109375,49.8385417 111.921875,49.296875 C113.005208,49.0260417 113.953125,48.078125 114.765625,46.453125 L114.765625,46.453125 L126.546875,24.3125 L138.734375,46.65625 Z M200.890625,50.3125 L200.890625,44.421875 L192.359375,44.421875 C191.140625,44.5572917 190.598958,44.0833333 190.734375,43 L190.734375,43 L190.734375,4.203125 L183.21875,4.203125 L183.21875,46.65625 C183.083333,49.09375 184.166667,50.3125 186.46875,50.3125 L186.46875,50.3125 L200.890625,50.3125 Z M179.5625,10.703125 L179.5625,4.609375 L155.59375,4.609375 L155.59375,10.703125 L179.5625,10.703125 Z M170.828125,50.921875 L170.828125,21.875 L179.765625,21.875 L179.765625,15.375 L154.984375,15.375 L154.984375,21.875 L164.328125,21.875 L164.328125,50.921875 L170.828125,50.921875 Z M176.704656,49.7107526 L176.921875,49.703125 L180.171875,49.703125 L180.171875,44.828125 L179.15625,44.828125 C178.34375,44.9635417 178.005208,44.5572917 178.140625,43.609375 L178.140625,43.609375 L178.140625,24.515625 L173.265625,24.515625 L173.265625,45.234375 C173.130208,48.3489583 174.348958,49.8385417 176.921875,49.703125 L176.704656,49.7107526 Z M158.84375,49.703125 C160.739583,49.5677083 161.755208,48.484375 161.890625,46.453125 L161.890625,46.453125 L161.890625,24.71875 L157.015625,24.71875 L157.015625,44.015625 C157.015625,44.6927083 156.609375,45.03125 155.796875,45.03125 L155.796875,45.03125 L154.984375,45.03125 L154.984375,49.703125 L158.84375,49.703125 Z" id="天降大礼备份" fill="#A6000D"></path>
            <path d="M6.09375,46.109375 C8.66666667,46.2447917 10.6979167,45.296875 12.1875,43.265625 L12.1875,43.265625 L22.953125,29.65625 L33.515625,43.671875 C34.5989583,45.296875 36.96875,46.109375 40.625,46.109375 L40.625,46.109375 L45.5,46.109375 L45.5,39.8125 L43.0625,39.8125 C40.625,39.9479167 38.8645833,38.9322917 37.78125,36.765625 L37.78125,36.765625 L28.640625,23.5625 L45.09375,23.5625 L45.09375,17.0625 L26.8125,17.0625 L26.8125,6.296875 L45.296875,6.296875 L45.296875,0 L0.40625,0 L0.40625,6.296875 L18.078125,6.296875 L18.078125,17.0625 L0,17.0625 L0,23.5625 L16.65625,23.5625 L6.296875,37.78125 C5.34895833,39.2708333 4.265625,39.9479167 3.046875,39.8125 L3.046875,39.8125 L0,39.8125 L0,46.109375 L6.09375,46.109375 Z M86.53125,21.9375 C87.6145833,23.15625 89.375,23.6979167 91.8125,23.5625 L91.8125,23.5625 L98.71875,23.5625 L98.71875,17.671875 L95.0625,17.671875 C93.4375,17.8072917 92.4895833,17.671875 92.21875,17.265625 L92.21875,17.265625 L90.1875,15.640625 L98.71875,7.515625 L98.71875,1.828125 L83.484375,1.828125 L83.6875,0 L75.96875,0 L75.15625,2.4375 C74.75,3.38541667 74.2083333,3.859375 73.53125,3.859375 L73.53125,3.859375 L72.109375,3.859375 L72.109375,9.546875 L75.5625,9.546875 C77.7291667,9.68229167 79.6927083,9.00520833 81.453125,7.515625 L81.453125,7.515625 L87.34375,7.515625 L83.6875,10.765625 L74.546875,10.765625 L79.015625,15.640625 L77.1875,16.859375 C76.375,17.5364583 75.6302083,17.8072917 74.953125,17.671875 L74.953125,17.671875 L72.109375,17.671875 L72.109375,23.359375 L77.796875,23.359375 C79.2864583,23.4947917 80.9114583,22.953125 82.671875,21.734375 L82.671875,21.734375 L84.5,20.3125 L86.53125,21.9375 Z M59.3125,46.3125 L59.3125,44.078125 L67.03125,44.078125 C69.6041667,44.078125 70.8229167,42.7916667 70.6875,40.21875 L70.6875,40.21875 L70.6875,27.015625 C70.6875,23.9010417 70.0104167,22.2083333 68.65625,21.9375 C70.0104167,21.6666667 70.7552083,20.3802083 70.890625,18.078125 L70.890625,18.078125 L70.890625,0.8125 L52.8125,0.8125 L52.8125,46.3125 L59.3125,46.3125 Z M63.171875,19.296875 L59.515625,19.296875 L59.515625,6.5 L64.390625,6.5 L64.390625,17.875 C64.390625,18.8229167 63.984375,19.296875 63.171875,19.296875 L63.171875,19.296875 Z M91,46.109375 L91,42.453125 L98.71875,42.453125 L98.71875,36.765625 L91.203125,36.765625 L91.203125,30.875 L98.3125,30.875 L98.3125,25.796875 L91,25.796875 L91,23.96875 L84.09375,23.96875 L84.09375,26 L72.71875,26 L72.71875,36.5625 L71.5,36.5625 L71.5,42.453125 L84.296875,42.453125 L84.296875,46.109375 L91,46.109375 Z M64.1875,36.96875 C64.1875,38.0520833 63.7135417,38.5260417 62.765625,38.390625 L62.765625,38.390625 L59.515625,38.390625 L59.515625,25.390625 L62.96875,25.390625 C63.78125,25.390625 64.1875,25.9322917 64.1875,27.015625 L64.1875,27.015625 L64.1875,36.96875 Z M84.296875,36.5625 L79.21875,36.5625 L79.21875,30.875 L84.296875,30.875 L84.296875,36.5625 Z M138.734375,42.65625 C139.953125,45.2291667 142.390625,46.4479167 146.046875,46.3125 L146.046875,46.3125 L149.703125,46.3125 L149.703125,39.8125 L147.875,39.8125 C146.25,39.9479167 145.166667,39.3385417 144.625,37.984375 L144.625,37.984375 L131.828125,14.015625 L149.703125,14.015625 L149.703125,7.71875 L130.8125,7.71875 L130.8125,0 L122.078125,0 L122.078125,7.71875 L103.390625,7.71875 L103.390625,14.015625 L121.265625,14.015625 L108.875,38.1875 C108.0625,39.6770833 106.911458,40.2864583 105.421875,40.015625 L105.421875,40.015625 L103.390625,40.015625 L103.390625,46.109375 L106.234375,46.109375 C109.213542,46.109375 111.109375,45.8385417 111.921875,45.296875 C113.005208,45.0260417 113.953125,44.078125 114.765625,42.453125 L114.765625,42.453125 L126.546875,20.3125 L138.734375,42.65625 Z M200.890625,46.3125 L200.890625,40.421875 L192.359375,40.421875 C191.140625,40.5572917 190.598958,40.0833333 190.734375,39 L190.734375,39 L190.734375,0.203125 L183.21875,0.203125 L183.21875,42.65625 C183.083333,45.09375 184.166667,46.3125 186.46875,46.3125 L186.46875,46.3125 L200.890625,46.3125 Z M179.5625,6.703125 L179.5625,0.609375 L155.59375,0.609375 L155.59375,6.703125 L179.5625,6.703125 Z M170.828125,46.921875 L170.828125,17.875 L179.765625,17.875 L179.765625,11.375 L154.984375,11.375 L154.984375,17.875 L164.328125,17.875 L164.328125,46.921875 L170.828125,46.921875 Z M176.704656,45.7107526 L176.921875,45.703125 L180.171875,45.703125 L180.171875,40.828125 L179.15625,40.828125 C178.34375,40.9635417 178.005208,40.5572917 178.140625,39.609375 L178.140625,39.609375 L178.140625,20.515625 L173.265625,20.515625 L173.265625,41.234375 C173.130208,44.3489583 174.348958,45.8385417 176.921875,45.703125 L176.704656,45.7107526 Z M158.84375,45.703125 C160.739583,45.5677083 161.755208,44.484375 161.890625,42.453125 L161.890625,42.453125 L161.890625,20.71875 L157.015625,20.71875 L157.015625,40.015625 C157.015625,40.6927083 156.609375,41.03125 155.796875,41.03125 L155.796875,41.03125 L154.984375,41.03125 L154.984375,45.703125 L158.84375,45.703125 Z" id="天降大礼" fill="url(#linearGradient-1)"></path>
        </g>
    </g>
</svg>