<?xml version="1.0" encoding="UTF-8"?>
<svg width="38px" height="38px" viewBox="0 0 38 38" version="1.1" xmlns="http://www.w3.org/2000/svg" xmlns:xlink="http://www.w3.org/1999/xlink">
    <title>阅读免广告</title>
    <g id="页面-1" stroke="none" stroke-width="1" fill="none" fill-rule="evenodd">
        <g id="阅读免广告">
            <circle id="椭圆形" fill="#FFF4C9" cx="19" cy="19" r="19"></circle>
            <path d="M10.5503426,12.8802196 L15.6236681,16.6532238 C15.6167562,16.6703939 15.6101393,16.6879562 15.6038193,16.7059097 L14.0812265,20.7432814 C14.0812265,20.7610425 14.072149,20.7790032 14.0541958,20.8055452 L14.0541958,21.0106966 C14.072149,21.3226145 14.2522862,21.4740833 14.5857316,21.4740833 C14.8560382,21.4740833 15.0452528,21.3583364 15.144298,21.1266431 L15.3784965,20.4313634 L17.4505783,20.4313634 L17.6577461,21.1266431 C17.7388381,21.3583364 17.9189753,21.4740833 18.2163125,21.4740833 C18.5497579,21.4740833 18.7298951,21.3315949 18.7478483,21.0374381 C18.7208176,20.9749747 18.7028644,20.876989 18.6849112,20.7432814 L17.781,18.258 L19.477,19.52 L19.4772727,20.9214917 C19.4774744,21.2691315 19.6755648,21.4473418 20.0630715,21.465103 L21.3512641,21.465103 C21.5778811,21.4539543 21.7895309,21.4278291 21.9862629,21.3866802 L27.053,25.155 L10.5406132,25.1550343 C10.243276,25.1550343 10,24.9143606 10,24.6204034 L10,14.3975573 C10,13.8230598 10.2067654,13.2942121 10.5503426,12.8802196 Z M25.5765196,12 C26.9098978,12 28,13.0784418 28,14.3975573 L28,24.6204034 C28,24.7832463 27.9253433,24.9297376 27.8081967,25.0280205 L22.6285287,21.174332 C23.4339024,20.7885244 23.8679167,20.0258283 23.9367267,18.880355 C23.8647122,17.1603161 22.9817778,16.2600846 21.2972028,16.17986 L20.0358392,16.17986 C19.6846423,16.2155819 19.4952259,16.4027726 19.4772727,16.7324517 L19.477,18.83 L17.437,17.313 L17.2163798,16.7059097 C17.0451183,16.322548 16.765936,16.1175962 16.3965842,16.099835 C16.233146,16.1073261 16.0905564,16.1481164 15.9701775,16.2215469 L10.9569223,12.4918033 C11.3647338,12.1835413 11.8734054,12 12.4234804,12 L25.5765196,12 Z M21.2703739,17.196038 C22.243276,17.2137992 22.7477811,17.7663908 22.765936,18.8536134 C22.7175182,19.7874827 22.3365936,20.3139661 21.623452,20.4266122 L20.594,19.661 L20.594809,17.196038 L21.2703739,17.196038 Z M16.4054599,17.2585014 L17.1080554,19.4066042 L15.7026627,19.4066042 L16.4054599,17.2585014 Z" id="形状结合" fill="#CD781D" fill-rule="nonzero"></path>
        </g>
    </g>
</svg>