<?xml version="1.0" encoding="UTF-8"?>
<svg width="38px" height="38px" viewBox="0 0 38 38" version="1.1" xmlns="http://www.w3.org/2000/svg" xmlns:xlink="http://www.w3.org/1999/xlink">
    <title>尊贵标识</title>
    <g id="页面-1" stroke="none" stroke-width="1" fill="none" fill-rule="evenodd">
        <g id="尊贵标识">
            <circle id="椭圆形备份" fill="#FFF4C9" cx="19" cy="19" r="19"></circle>
            <g id="会员" transform="translate(9.000000, 9.000000)" fill-rule="nonzero">
                <rect id="矩形" fill="#000000" opacity="0" x="0" y="0" width="20" height="20"></rect>
                <path d="M18.3222656,7.54101562 L14.9042969,3.28320312 C14.5625,2.84765625 14.0039062,2.56835938 13.4433594,2.56835938 L6.54296875,2.56835938 C5.984375,2.56835938 5.45507813,2.81640625 5.08203125,3.28320312 L1.6640625,7.54101562 C1.07421875,8.25585938 1.13476562,9.3125 1.7578125,9.99804688 L8.68945312,17.3339844 L8.78320312,17.4277344 C9.125,17.7382812 9.59179688,17.9257812 10.0566406,17.9257812 L10.1191406,17.9257812 C10.6171875,17.8945312 11.0820312,17.7089844 11.4238281,17.3359375 L18.1992188,10.03125 C18.8515625,9.3125 18.8828125,8.25585938 18.3222656,7.54101562 L18.3222656,7.54101562 Z M14.2207031,9.625 L10.9882812,13.1367188 C10.4902344,13.6347656 9.71484375,13.6660156 9.21679688,13.1992188 L9.15429688,13.1367188 L5.796875,9.59375 C5.58007813,9.34570312 5.58007813,8.94140625 5.828125,8.72265625 C6.10742188,8.47460937 6.48046875,8.50585937 6.72851563,8.75390625 L9.8828125,12.0859375 C9.9765625,12.1835937 10.1308594,12.1835937 10.2246094,12.0859375 L13.2871094,8.81835937 C13.5351562,8.5703125 13.9082031,8.5390625 14.1875,8.75585937 C14.4375,8.97070312 14.4375,9.375 14.2207031,9.625 Z" id="形状" fill="#CD781D"></path>
            </g>
        </g>
    </g>
</svg>