<?xml version="1.0" encoding="UTF-8"?>
<svg width="38px" height="38px" viewBox="0 0 38 38" version="1.1" xmlns="http://www.w3.org/2000/svg" xmlns:xlink="http://www.w3.org/1999/xlink">
    <title>免费畅读</title>
    <g id="页面-1" stroke="none" stroke-width="1" fill="none" fill-rule="evenodd">
        <g id="免费畅读">
            <g id="编组-4">
                <circle id="椭圆形备份-2" fill="#FFF4C9" cx="19" cy="19" r="19"></circle>
                <rect id="矩形" fill="#000000" fill-rule="nonzero" opacity="0" x="10" y="10" width="18" height="18"></rect>
            </g>
            <g id="书" transform="translate(10.000000, 10.000000)" fill="#CD781D" fill-rule="nonzero">
                <path d="M15.7080745,2.12422359 C15.3726708,2.12422359 15.1490683,2.34782608 15.1490683,2.6832298 L15.1490683,15.6521739 C15.1490683,16.2111801 14.5900621,16.7701863 14.0310559,16.7701863 L4.19254659,16.7701863 C3.52173913,16.7701863 2.73913044,16.2111801 2.73913044,15.6521739 L2.73913044,14.4223603 C2.73913044,13.863354 3.40993789,13.5279503 4.08074534,13.5279503 L13.4720497,13.5279503 C13.8074534,13.5279503 14.0310559,13.3043478 14.0310559,12.9689441 L14.0310559,2.01242236 C14.0310559,0.782608693 13.136646,0 11.7950311,0 L4.19254659,0 C2.96273292,0 1.73291926,0.670807459 1.73291926,2.01242236 L1.73291926,15.7639752 C1.73291926,15.7639752 1.73291926,15.7639752 1.73291926,15.8757764 C1.73291926,15.9875776 1.73291926,15.9875776 1.73291926,16.0993789 C1.84472049,17.1055901 2.85093167,17.8881987 3.85714285,18 C3.85714285,18 3.96894408,18 3.96894408,18 C3.96894408,18 3.96894408,18 4.08074532,18 L14.0310559,18 C15.2608695,18 16.2670807,16.9937888 16.2670807,15.8757764 L16.2670807,2.68322982 C16.2670807,2.45962733 16.0434783,2.12422359 15.7080745,2.12422359 Z M13.5838509,14.6459627 L4.41614907,14.6459627 C4.08074535,14.6459627 3.85714287,14.8695652 3.85714287,15.2049689 C3.85714287,15.5403727 4.08074535,15.7639752 4.41614907,15.7639752 L13.5838509,15.7639752 C13.9192547,15.7639752 14.1428572,15.5403727 14.1428572,15.2049689 C14.1428572,14.8695652 13.9192547,14.6459627 13.5838509,14.6459627 Z" id="形状"></path>
            </g>
        </g>
    </g>
</svg>