<?xml version="1.0" encoding="UTF-8"?>
<svg width="38px" height="38px" viewBox="0 0 38 38" version="1.1" xmlns="http://www.w3.org/2000/svg" xmlns:xlink="http://www.w3.org/1999/xlink">
    <title>专属客服</title>
    <g id="页面-1" stroke="none" stroke-width="1" fill="none" fill-rule="evenodd">
        <g id="专属客服">
            <circle id="椭圆形备份-3" fill="#FFF4C9" cx="19" cy="19" r="19"></circle>
            <g id="客服" transform="translate(7.000000, 7.000000)" fill-rule="nonzero">
                <rect id="矩形" fill="#000000" opacity="0" x="0" y="0" width="24" height="24"></rect>
                <path d="M12,18 C8.6862915,18 6,15.3137085 6,12 C6,8.6862915 8.6862915,6 12,6 C15.3137085,6 18,8.6862915 18,12 C18,15.3137085 15.3137085,18 12,18 Z M12,15.4285714 C13.8942857,15.4285714 15.4285714,13.9954286 15.4285714,13.2857143 C15.4285714,12.576 13.8942857,13.7142857 12,13.7142857 C10.1057143,13.7142857 8.57142857,12.576 8.57142857,13.2857143 C8.57142857,13.9954286 10.1057143,15.4285714 12,15.4285714 Z" id="形状" fill="#CD781D"></path>
                <path d="M16.2603434,19.6644666 C16.0181868,20.2547083 15.394965,20.5939053 14.767821,20.4767923 C14.140677,20.3596793 13.681871,19.8184242 13.6690498,19.1805679 C13.6562286,18.5427116 14.0929138,17.9834566 14.714845,17.8412366 C15.3367763,17.6990165 15.9731253,18.0128955 16.2388049,18.5929295 C18.2490588,17.1067775 19.5018778,14.6585753 19.5018778,11.9698607 C19.5018778,7.50781493 16.0808564,3.89743478 11.8736821,3.89743478 C7.66650782,3.89743478 4.24548638,7.50691749 4.24548638,11.9707582 C4.24527424,12.895175 4.39499572,13.8135072 4.68881918,14.6899856 C4.74543344,14.8431803 4.71434096,15.0150379 4.60764032,15.1386857 C4.50093967,15.2623335 4.33548299,15.3182428 4.17565215,15.2846585 C4.01582131,15.2510741 3.88685972,15.1333003 3.83894842,14.9771647 C3.75342021,14.7244383 3.67886344,14.4681307 3.61548716,14.2089605 C2.73237592,14.1202431 2.04671231,13.3993813 2.00227794,12.5129379 C1.95784356,11.6264946 2.56798256,10.8406786 3.43779507,10.6640931 C4.03907639,6.33307281 7.58214894,3 11.8736821,3 C16.1652153,3 19.7082878,6.33307281 20.3095691,10.6640931 C21.1794343,10.8409944 21.789336,11.6271877 21.7444482,12.5137229 C21.6995603,13.400258 21.0133669,14.1208263 20.1300822,14.2089605 C19.5754675,16.4830603 18.1871358,18.4466476 16.2603434,19.6644666 Z" id="路径" fill="#CD781D"></path>
            </g>
        </g>
    </g>
</svg>