<?xml version="1.0" encoding="UTF-8"?>
<svg width="22px" height="22px" viewBox="0 0 22 22" version="1.1" xmlns="http://www.w3.org/2000/svg" xmlns:xlink="http://www.w3.org/1999/xlink">
    <title>优惠券备份</title>
    <g id="页面-1" stroke="none" stroke-width="1" fill="none" fill-rule="evenodd">
        <g id="优惠券备份" fill-rule="nonzero">
            <rect id="矩形" fill="#000000" opacity="0" x="0" y="0" width="22" height="22"></rect>
            <path d="M2.1395,15.0117 C3.3781,14.8313 4.1195,14.0987 4.1195,13.068 C4.1195,12.0384 3.3638,11.2904 2.1186,11.1254 C2.1186,9.9077 2.09,8.6834 2.1318,7.4602 C2.1516,6.8882 2.6521,6.4515 3.2604,6.3481 C3.4661,6.3129 3.6806,6.3151 3.8907,6.3151 C8.6735,6.314 13.4563,6.314 18.2391,6.314 C19.5734,6.314 20.0453,6.7661 20.0453,8.041 L20.0453,11.1078 C18.7495,11.3344 18.0268,12.0692 18.0422,13.1098 C18.0576,14.1075 18.7935,14.8247 20.0343,15.0183 C20.0343,16.2217 20.0607,17.4317 20.0233,18.6395 C20.0035,19.2797 19.4238,19.7593 18.722,19.8143 C18.4602,19.8352 18.1951,19.8242 17.9311,19.8242 L4.0579,19.8242 C2.5311,19.8242 2.1032,19.4216 2.10429789,17.9784 C2.10429789,17.0357 2.1065,16.0919 2.1087,15.1492 C2.1098,15.1173 2.123,15.0843 2.1395,15.0117 L2.1395,15.0117 Z M11.0561,11.8558 C12.3552,11.8558 13.6543,11.858 14.9534,11.8547 C15.5661,11.8525 15.862,11.594 15.8752,11.0649 C15.8906,10.4599 15.5925,10.1409 14.971,10.1398 C12.3904,10.1343 9.8098,10.1343 7.2303,10.1398 C6.5835,10.1409 6.2733,10.4412 6.27657395,11.0242 C6.2799,11.594 6.5637,11.8525 7.2127,11.8547 C8.4931,11.8591 9.7746,11.8558 11.0561,11.8558 L11.0561,11.8558 Z M11.0198,14.2813 C9.7735,14.2813 8.5261,14.2802 7.2798,14.2824 C6.6022,14.2835 6.2689,14.5772 6.2755,15.158 C6.2821,15.7355 6.5846,15.9984 7.2655,15.9995 C9.812,16.0017 12.3574,16.0028 14.9039,15.9995 C15.5793,15.9984 15.8829,15.7245 15.8752,15.1459 C15.8675,14.5387 15.5914,14.2857 14.9182,14.2835 C13.618,14.2791 12.3189,14.2813 11.0198,14.2813 L11.0198,14.2813 Z" id="形状" fill="#8C8C8C"></path>
            <path d="M4.1844,4.9434 L13.4299,4.9434 L8.2676,2.3705 C7.3029,1.8898 6.1325,2.1846 5.511,3.0646 L4.1844,4.9434 Z" id="路径" fill="#BFBFBF"></path>
            <path d="M20.0453,8.041 C20.0453,6.7661 19.5734,6.314 18.2391,6.314 C13.4563,6.314 8.6735,6.314 3.8907,6.3151 C3.6806,6.3151 3.4661,6.3129 3.2604,6.3481 C2.6532,6.4515 2.1516,6.8882 2.1318,7.4602 C2.09,8.6834 2.1186,9.9077 2.1186,11.1254 C3.3638,11.2904 4.1184,12.0384 4.1195,13.068 C4.1195,14.0987 3.3792,14.8313 2.1406,15.0117 C2.1241,15.0843 2.1098,15.1173 2.1098,15.1492 C2.1076,16.0919 2.10539789,17.0357 2.10539789,17.9784 C2.1043,19.4205 2.5322,19.8242 4.059,19.8242 L11.055,19.8242 C14.08,18.7627 16.6287,16.6881 18.2952,14.0085 C18.1357,13.7467 18.0477,13.4442 18.0433,13.1098 C18.029,12.1869 18.5977,11.5049 19.6306,11.2046 C19.7945,10.7305 19.9331,10.2454 20.0453,9.7493 L20.0453,8.041 L20.0453,8.041 Z M7.2292,10.1398 C9.8098,10.1343 12.3904,10.1343 14.9699,10.1398 C15.5914,10.1409 15.8895,10.4599 15.8741,11.0649 C15.8609,11.594 15.565,11.8525 14.9523,11.8547 C13.6532,11.858 12.3541,11.8558 11.055,11.8558 C9.7735,11.8558 8.492,11.8591 7.2105,11.8547 C6.5615,11.8525 6.2777,11.594 6.27438834,11.0242 C6.2722,10.4412 6.5813,10.1409 7.2292,10.1398 L7.2292,10.1398 Z M14.9039,15.9984 C12.3574,16.0017 9.812,16.0017 7.2655,15.9984 C6.5846,15.9973 6.2821,15.7344 6.2755,15.1569 C6.2689,14.5761 6.6022,14.2824 7.2798,14.2813 C8.5261,14.2791 9.7735,14.2802 11.0198,14.2802 C12.3189,14.2802 13.6191,14.278 14.9182,14.2813 C15.5914,14.2835 15.8675,14.5365 15.8752,15.1437 C15.8818,15.7234 15.5782,15.9973 14.9039,15.9984 Z" id="形状" fill="#BFBFBF"></path>
            <path d="M3.2604,6.3481 C2.6532,6.4515 2.1516,6.8882 2.1318,7.4602 C2.09,8.6834 2.1186,9.9077 2.1186,11.1254 C3.3638,11.2904 4.1184,12.0384 4.1195,13.068 C4.1195,14.0987 3.3792,14.8313 2.1406,15.0117 C2.1241,15.0843 2.1098,15.1173 2.1098,15.1492 C2.1098,15.3131 2.1098,15.477 2.1087,15.6398 C2.2748,15.6453 2.442,15.6497 2.6103,15.6497 C3.8797,15.6497 5.1084,15.4792 6.2766,15.1624 L6.2766,15.1569 C6.27,14.5761 6.6033,14.2824 7.2809,14.2813 C7.7363,14.2802 8.1906,14.2813 8.646,14.2813 C9.94112431,13.659304 11.1325102,12.841177 12.1781,11.8558 L11.0572,11.8558 C9.7757,11.8558 8.4942,11.8591 7.2127,11.8547 C6.5637,11.8525 6.2799,11.594 6.2766,11.0242 C6.2733,10.4412 6.5824,10.142 7.2303,10.1398 C9.3951,10.1354 11.5599,10.1365 13.7247,10.1398 C14.6082165,8.98017518 15.3045318,7.68924525 15.7883,6.314 C11.8228,6.314 7.8573,6.314 3.8929,6.3151 C3.6795,6.3151 3.4661,6.3129 3.2604,6.3481 L3.2604,6.3481 Z" id="路径" fill="#D9D9D9"></path>
            <path d="M3.2604,6.3481 C2.6532,6.4515 2.1516,6.8882 2.1318,7.4602 C2.0988,8.4337 2.1098,9.4094 2.1164,10.3818 C4.9038,9.768 7.3777,8.3215 9.2653,6.31507284 L3.8907,6.31507284 C3.6795,6.31507284 3.4661,6.3129 3.2604,6.3481 L3.2604,6.3481 Z M11.1463,3.8049 L8.2676,2.3705 C7.304,1.8898 6.1325,2.1846 5.511,3.0646 L4.1844,4.9434 L10.4016,4.9434 C10.6667,4.5771 10.9153,4.1976 11.1463,3.8049 L11.1463,3.8049 Z" id="形状" fill="#E8E8E8"></path>
        </g>
    </g>
</svg>